<svg width="60" height="50" viewBox="0 0 60 50" fill="none" xmlns="http://www.w3.org/2000/svg">
<path fill-rule="evenodd" clip-rule="evenodd" d="M5 14.5833C5 8.83037 10.5964 4.16666 17.5 4.16666H42.5C49.4036 4.16666 55 8.83037 55 14.5833V35.4167C55 41.1696 49.4036 45.8333 42.5 45.8333H17.5C10.5964 45.8333 5 41.1696 5 35.4167V14.5833ZM17.5 8.33333C13.3579 8.33333 10 11.1316 10 14.5833V35.4167C10 38.8684 13.3579 41.6667 17.5 41.6667H42.5C46.6421 41.6667 50 38.8684 50 35.4167V14.5833C50 11.1316 46.6421 8.33333 42.5 8.33333H17.5Z" fill="black"/>
<path fill-rule="evenodd" clip-rule="evenodd" d="M27.5 25C27.5 20.3976 31.9772 16.6667 37.5 16.6667H50C52.7614 16.6667 55 18.5322 55 20.8333V29.1667C55 31.4679 52.7614 33.3333 50 33.3333H37.5C31.9772 33.3333 27.5 29.6024 27.5 25ZM37.5 20.8333C34.7386 20.8333 32.5 22.6988 32.5 25C32.5 27.3012 34.7386 29.1667 37.5 29.1667H50V20.8333H37.5Z" fill="black"/>
<path fill-rule="evenodd" clip-rule="evenodd" d="M35 25C35 23.8494 36.1193 22.9167 37.5 22.9167L37.75 22.9167C39.1307 22.9167 40.25 23.8494 40.25 25C40.25 26.1506 39.1307 27.0833 37.75 27.0833L37.5 27.0833C36.1193 27.0833 35 26.1506 35 25Z" fill="black"/>
</svg>
